# xmcd
#
# Track frame offsets:
#	150
#	17300
#	33484
#	48033
#	63568
#	78373
#	97377
#	114258
#	131245
#	148439
#	163685
#	181331
#	199711
#	218085
#	236547
#	249511
#
# Disc length: 3606 seconds
#
# Revision: 3
# Processed by: cddbd v1.5.2PL0 Copyright (c) Steve Scherf et al.
# Submitted via: EasyCDDAExtractor 15.3.0.1
#
DISCID=e00e1410
DTITLE=Jennifer Lopez - A.K.A. (Target Deluxe Edition)
DYEAR=2014
DGENRE=Pop
TTITLE0=A.K.A. (Featuring T.I.)
TTITLE1=First Love
TTITLE2=Never Satisfied
TTITLE3=I Luh Ya Papi (Featuring French Montana)
TTITLE4=Acting Like That (Featuring Iggy Azalea)
TTITLE5=Emotions
TTITLE6=So Good
TTITLE7=Let It Be Me
TTITLE8=Worry No More (Featuring Rick Ross)
TTITLE9=Booty (Featuring Pitbull)
TTITLE10=Tens (Featuring Jack Mizrahi)
TTITLE11=Troubeaux (Featuring Nas)
TTITLE12=Expertease (Ready Set Go)
TTITLE13=Same Girl (Featuring French Montana)
TTITLE14=Charades
TTITLE15=Girls (Featuring Tyga)
EXTD=
EXTT0=
EXTT1=
EXTT2=
EXTT3=
EXTT4=
EXTT5=
EXTT6=
EXTT7=
EXTT8=
EXTT9=
EXTT10=
EXTT11=
EXTT12=
EXTT13=
EXTT14=
EXTT15=
PLAYORDER=
